<?xml version="1.0" encoding="utf-8"?>
<!-- Generator: Adobe Illustrator 19.2.1, SVG Export Plug-In . SVG Version: 6.00 Build 0)  -->
<svg version="1.1" id="Layer_1" xmlns="http://www.w3.org/2000/svg" xmlns:xlink="http://www.w3.org/1999/xlink" x="0px" y="0px"
	 viewBox="0 0 195.4 201.6" style="enable-background:new 0 0 195.4 201.6;" xml:space="preserve">
<style type="text/css">
	.st0{fill:#FFFFFF;}
</style>
<title>Logo</title>
<g>
	<path class="st0" d="M24,121.2c-8.9,5.4-16.6,12.4-22.8,20.8c0,0-0.6,0.6-1.2,1.4c9.7,21.1,26.2,38.2,46.9,48.7
		c0.7,0.4,1.5,0.8,2.2,1.1c6.7,3.2,13.7,5.6,20.8,7.3c-2.5-4.3-5-9.5-5.4-10.4c-4-9.7-6-21.8-4.8-35.9c2.5-33.5,22.1-48.5,38-57.1
		v-5C69.8,101.6,40.9,110.6,24,121.2z"/>
	<path d="M181.4,49c-2-3.3-4.1-6.5-6.4-9.6c0.1,1.2,0.2,2.5,0.1,3.7c-1.3,21.4-38.5,35.7-77.4,49v5c4.9-2.6,9.4-4.7,12.9-6.5v110.9
		c29.3-5.1,54.9-22.7,70.2-48.1c0.3-0.5,0.6-1,0.9-1.5v-0.1C200.1,120,200,80.8,181.4,49z"/>
	<path class="st0" d="M39,100.5c0.2,0,0.3,0,0.5,0c20.1,0.2,36.5-15.9,36.7-36c0-0.1,0-0.2,0-0.2c0-9.9-3.8-18.8-10.4-25
		C60.2,32.7,56,25.7,56,19.1C56,10.8,62.6,3.5,74.6,0c-5.8,1.1-11.5,2.6-17,4.7C28.7,15.9,3.2,39.7,3.2,64.3
		C3.1,84.2,19.1,100.4,39,100.5z"/>
</g>
</svg>
