<svg id="Layer_1" data-name="Layer 1" xmlns="http://www.w3.org/2000/svg" viewBox="0 0 393.27 405.65"><defs><style>.cls-1{fill:none;}.cls-2{fill:#151514;}</style></defs><title>anew</title><polygon class="cls-1" points="100.51 382.98 100.51 382.98 100.51 382.98 100.51 382.98"/><path class="cls-2" d="M242.88,359.47c40.75,0,73.91-32.22,73.91-73,0-19.9-7.58-37.91-20.85-50.22C284.57,223,276,208.8,276,195.53c0-16.62,13.26-31.22,37.47-38.36a204.49,204.49,0,0,0-34.31,9.38c-58.06,22.7-109.3,70.46-109.3,119.95A72.4,72.4,0,0,0,242.88,359.47Z" transform="translate(-163.37 -157.18)"/><path class="cls-2" d="M536.56,488.36s0,0,0,0v0Z" transform="translate(-163.37 -157.18)"/><path class="cls-2" d="M528.49,255.86a206.36,206.36,0,0,0-12.87-19.4,44.37,44.37,0,0,1,.18,7.4C511.06,317.78,293.1,350,211.6,401.17A164.63,164.63,0,0,0,165.74,443s-1.17,1.27-2.37,2.83a206.79,206.79,0,0,0,94.47,97.94c1.48,0.75,2.94,1.52,4.44,2.23a204.65,204.65,0,0,0,41.92,14.6c-5-8.72-10-19.12-10.84-20.92-8.13-19.55-12.1-43.79-9.73-72.17,6.63-88.13,72-112.76,102.35-127.93V562.82A206.15,206.15,0,0,0,527.16,466c0.64-1,1.28-1.94,1.9-2.92v-0.28A206.14,206.14,0,0,0,528.49,255.86ZM263.88,540.16h0Z" transform="translate(-163.37 -157.18)"/></svg>