<svg id="Layer_1" data-name="Layer 1" xmlns="http://www.w3.org/2000/svg" viewBox="0 0 195.43 201.58"><title>Logo</title><path d="M181.44,49A102.55,102.55,0,0,0,175,39.4a22,22,0,0,1,.09,3.68C172.78,79.81,64.47,95.82,24,121.25A81.81,81.81,0,0,0,1.18,142s-.58.63-1.18,1.41A102.76,102.76,0,0,0,46.94,192.1c.74.37,1.46.76,2.21,1.11A101.7,101.7,0,0,0,70,200.47c-2.5-4.34-5-9.5-5.39-10.39-4-9.71-6-21.76-4.84-35.87,3.3-43.79,35.79-56,50.86-63.57V201.58a102.44,102.44,0,0,0,70.16-48.1c.32-.48.64-1,.95-1.45v-.14A102.44,102.44,0,0,0,181.44,49ZM49.95,190.32h0Z"/><path d="M3.25,64.27a36,36,0,0,0,36.26,36.26A36.38,36.38,0,0,0,76.24,64.27c0-9.89-3.77-18.84-10.36-25C60.23,32.72,56,25.65,56,19.06,56,10.8,62.58,3.55,74.61,0a101.62,101.62,0,0,0-17,4.66C28.72,15.94,3.25,39.67,3.25,64.27Z"/></svg>