<svg xmlns="http://www.w3.org/2000/svg" viewBox="0 0 195.4 201.6"><style>.st0{fill:#F1F1F1;}.st1{fill:#1D1D1D;}</style><path d="M24 121.2c-8.9 5.4-16.6 12.4-22.8 20.8 0 0-.6.6-1.2 1.4 9.7 21.1 26.2 38.2 46.9 48.7.7.4 1.5.8 2.2 1.1 6.7 3.2 13.7 5.6 20.8 7.3-2.5-4.3-5-9.5-5.4-10.4-4-9.7-6-21.8-4.8-35.9 2.5-33.5 22.1-48.5 38-57.1v-5c-27.9 9.5-56.8 18.5-73.7 29.1z" class="st0"/><path d="M181.4 49c-2-3.3-4.1-6.5-6.4-9.6.1 1.2.2 2.5.1 3.7-1.3 21.4-38.5 35.7-77.4 49v5c4.9-2.6 9.4-4.7 12.9-6.5v110.9c29.3-5.1 54.9-22.7 70.2-48.1l.9-1.5v-.1c18.4-31.8 18.3-71-.3-102.8z" class="st1"/><path d="M39 100.5h.5c20.1.2 36.5-15.9 36.7-36v-.2c0-9.9-3.8-18.8-10.4-25-5.6-6.6-9.8-13.6-9.8-20.2C56 10.8 62.6 3.5 74.6 0c-5.8 1.1-11.5 2.6-17 4.7-28.9 11.2-54.4 35-54.4 59.6-.1 19.9 15.9 36.1 35.8 36.2z" class="st0"/></svg>
